<svg width="115" height="34" fill="none" xmlns="http://www.w3.org/2000/svg"><g clip-path="url(#clip0)" fill="#000"><path d="M0 12.88v2.577h2.458V12.88H0zM11.647 4.53c-1.56 0-2.822.708-3.612 1.739h-.086V0H5.92v15.457h2.03v-5.303c0-2.125 1.325-3.65 3.27-3.65 1.838 0 2.907 1.375 2.907 3.22v5.733h2.03V9.36c0-2.941-1.816-4.83-4.51-4.83zM26.617 4.83h-4.809V1.073h-2.03V4.83h-1.924v1.975h1.924v5.99c0 1.717.962 2.662 2.693 2.662h4.146V13.46h-3.74c-.684 0-1.069-.386-1.069-1.052V6.805h4.81V4.83zM41.121 4.551c-1.624 0-2.863.794-3.547 2.061h-.064c-.62-1.245-1.774-2.06-3.356-2.06-1.41 0-2.48.75-3.12 1.802h-.086V4.83h-1.945v10.627h2.03v-5.453c0-1.997 1.048-3.456 2.63-3.5 1.495-.042 2.372 1.031 2.372 2.641v6.312h2.03V9.832c0-2.383 1.41-3.327 2.63-3.327 1.474 0 2.35 1.03 2.35 2.64v6.312h2.03V8.93c0-2.576-1.453-4.379-3.954-4.379zM47.827 12.709c0 1.739.983 2.748 2.8 2.748h2.009v-1.975h-1.71c-.684 0-1.069-.387-1.069-1.052V0h-2.03v12.709zM28.905 19.706h-.086c-.792-1.067-2.076-1.814-3.79-1.835-3.147-.043-5.395 2.284-5.395 5.57 0 3.308 2.29 5.634 5.374 5.592 1.756-.022 3.019-.811 3.811-1.943h.086v1.644h2.013V18.17h-2.013v1.536zm-3.597 7.363c-2.227 0-3.64-1.622-3.64-3.628 0-2.006 1.413-3.628 3.64-3.628 2.162 0 3.576 1.622 3.576 3.628 0 1.985-1.414 3.628-3.576 3.628zM44.21 22.011c-.493-2.39-2.613-4.14-5.396-4.14-3.362 0-5.61 2.454-5.61 5.57s2.248 5.591 5.61 5.591c2.783 0 4.903-1.792 5.395-4.204h-2.12c-.427 1.345-1.69 2.262-3.254 2.262-2.184 0-3.597-1.643-3.597-3.649 0-2.006 1.413-3.628 3.597-3.628 1.627 0 2.827.96 3.255 2.198h2.12zM55.084 19.706h-.086c-.792-1.067-2.077-1.814-3.79-1.835-3.147-.043-5.395 2.284-5.395 5.57 0 3.308 2.29 5.634 5.374 5.592 1.756-.022 3.019-.811 3.811-1.943h.086v1.644h2.012V18.17h-2.012v1.536zm-3.597 7.363c-2.227 0-3.64-1.622-3.64-3.628 0-2.006 1.413-3.628 3.64-3.628 2.162 0 3.575 1.622 3.575 3.628 0 1.985-1.413 3.628-3.575 3.628zM68.654 19.813h-.086c-.792-1.131-2.12-1.92-3.811-1.942-3.083-.043-5.374 2.283-5.374 5.591 0 3.287 2.248 5.613 5.395 5.57 1.67-.02 2.998-.768 3.769-1.835h.107v1.537h2.013V13.368h-2.013v6.445zm-3.597 7.277c-2.227 0-3.64-1.622-3.64-3.628 0-2.006 1.413-3.628 3.64-3.628 2.162 0 3.575 1.644 3.575 3.628 0 2.006-1.413 3.628-3.575 3.628zM78.33 17.87c-3.255 0-5.482 2.498-5.482 5.592 0 3.01 2.099 5.57 5.524 5.57 2.484 0 4.475-1.344 5.182-3.585h-2.12c-.47 1.003-1.605 1.643-2.976 1.643-1.927 0-3.297-1.28-3.447-2.923h8.757c.278-3.522-1.927-6.296-5.438-6.296zm-.043 1.943c1.691 0 2.955 1.046 3.276 2.56h-6.51c.3-1.493 1.564-2.56 3.234-2.56zM98.198 17.892c-1.627 0-2.868.79-3.554 2.049h-.064c-.62-1.238-1.777-2.049-3.362-2.049-1.413 0-2.483.747-3.126 1.793h-.085V18.17h-1.949v10.563h2.034v-5.42c0-1.985 1.05-3.436 2.634-3.479 1.499-.043 2.377 1.025 2.377 2.625v6.274h2.034v-5.59c0-2.37 1.413-3.309 2.633-3.309 1.478 0 2.355 1.025 2.355 2.625v6.274h2.035v-6.487c0-2.561-1.456-4.354-3.962-4.354zM109.441 27.048l-3.64-8.878h-2.248l4.839 11.567-.021.042c-.343.875-.728 1.195-1.67 1.195h-2.505v2.028h2.505c1.841 0 2.826-.832 3.511-2.625l4.668-12.207h-2.077l-3.362 8.878z"/></g><defs><clipPath id="clip0"><path fill="#fff" d="M0 0h115v33.029H0z"/></clipPath></defs></svg>